<svg id="visual" viewBox="0 0 960 540" width="960" height="540" xmlns="http://www.w3.org/2000/svg" xmlns:xlink="http://www.w3.org/1999/xlink" version="1.1"><rect x="0" y="0" width="960" height="540" fill="#001220"></rect><defs><linearGradient id="grad1_0" x1="43.8%" y1="0%" x2="100%" y2="100%"><stop offset="14.444444444444446%" stop-color="#aeffbd" stop-opacity="1"></stop><stop offset="85.55555555555554%" stop-color="#aeffbd" stop-opacity="1"></stop></linearGradient></defs><defs><linearGradient id="grad1_1" x1="43.8%" y1="0%" x2="100%" y2="100%"><stop offset="14.444444444444446%" stop-color="#aeffbd" stop-opacity="1"></stop><stop offset="85.55555555555554%" stop-color="#56c0aa" stop-opacity="1"></stop></linearGradient></defs><defs><linearGradient id="grad1_2" x1="43.8%" y1="0%" x2="100%" y2="100%"><stop offset="14.444444444444446%" stop-color="#178188" stop-opacity="1"></stop><stop offset="85.55555555555554%" stop-color="#56c0aa" stop-opacity="1"></stop></linearGradient></defs><defs><linearGradient id="grad1_3" x1="43.8%" y1="0%" x2="100%" y2="100%"><stop offset="14.444444444444446%" stop-color="#178188" stop-opacity="1"></stop><stop offset="85.55555555555554%" stop-color="#054658" stop-opacity="1"></stop></linearGradient></defs><defs><linearGradient id="grad1_4" x1="43.8%" y1="0%" x2="100%" y2="100%"><stop offset="14.444444444444446%" stop-color="#001220" stop-opacity="1"></stop><stop offset="85.55555555555554%" stop-color="#054658" stop-opacity="1"></stop></linearGradient></defs><defs><linearGradient id="grad2_0" x1="0%" y1="0%" x2="56.3%" y2="100%"><stop offset="14.444444444444446%" stop-color="#aeffbd" stop-opacity="1"></stop><stop offset="85.55555555555554%" stop-color="#aeffbd" stop-opacity="1"></stop></linearGradient></defs><defs><linearGradient id="grad2_1" x1="0%" y1="0%" x2="56.3%" y2="100%"><stop offset="14.444444444444446%" stop-color="#56c0aa" stop-opacity="1"></stop><stop offset="85.55555555555554%" stop-color="#aeffbd" stop-opacity="1"></stop></linearGradient></defs><defs><linearGradient id="grad2_2" x1="0%" y1="0%" x2="56.3%" y2="100%"><stop offset="14.444444444444446%" stop-color="#56c0aa" stop-opacity="1"></stop><stop offset="85.55555555555554%" stop-color="#178188" stop-opacity="1"></stop></linearGradient></defs><defs><linearGradient id="grad2_3" x1="0%" y1="0%" x2="56.3%" y2="100%"><stop offset="14.444444444444446%" stop-color="#054658" stop-opacity="1"></stop><stop offset="85.55555555555554%" stop-color="#178188" stop-opacity="1"></stop></linearGradient></defs><defs><linearGradient id="grad2_4" x1="0%" y1="0%" x2="56.3%" y2="100%"><stop offset="14.444444444444446%" stop-color="#054658" stop-opacity="1"></stop><stop offset="85.55555555555554%" stop-color="#001220" stop-opacity="1"></stop></linearGradient></defs><g transform="translate(960, 0)"><path d="M0 513C-60 490 -120 467 -184.8 446.2C-249.6 425.5 -319.2 406.9 -362.7 362.7C-406.3 318.6 -423.7 248.8 -444.4 184.1C-465.1 119.3 -489 59.7 -513 0L0 0Z" fill="#062b3c"></path><path d="M0 410.4C-48 392 -96 373.6 -147.9 357C-199.7 340.4 -255.4 325.5 -290.2 290.2C-325 254.9 -339 199 -355.5 147.3C-372.1 95.5 -391.2 47.7 -410.4 0L0 0Z" fill="#056372"></path><path d="M0 307.8C-36 294 -72 280.2 -110.9 267.7C-149.8 255.3 -191.5 244.1 -217.6 217.6C-243.8 191.1 -254.2 149.3 -266.6 110.4C-279 71.6 -293.4 35.8 -307.8 0L0 0Z" fill="#33a19b"></path><path d="M0 205.2C-24 196 -48 186.8 -73.9 178.5C-99.9 170.2 -127.7 162.8 -145.1 145.1C-162.5 127.4 -169.5 99.5 -177.8 73.6C-186 47.7 -195.6 23.9 -205.2 0L0 0Z" fill="#7fe0b4"></path><path d="M0 102.6C-12 98 -24 93.4 -37 89.2C-49.9 85.1 -63.8 81.4 -72.5 72.5C-81.3 63.7 -84.7 49.8 -88.9 36.8C-93 23.9 -97.8 11.9 -102.6 0L0 0Z" fill="#aeffbd"></path></g><g transform="translate(0, 540)"><path d="M0 -513C58.9 -489.1 117.8 -465.3 184.5 -445.3C251.1 -425.4 325.6 -409.4 362.7 -362.7C399.9 -316.1 399.7 -238.9 418.5 -173.4C437.3 -107.8 475.2 -53.9 513 0L0 0Z" fill="#062b3c"></path><path d="M0 -410.4C47.1 -391.3 94.2 -372.2 147.6 -356.2C200.9 -340.3 260.5 -327.5 290.2 -290.2C319.9 -252.9 319.8 -191.1 334.8 -138.7C349.9 -86.2 380.1 -43.1 410.4 0L0 0Z" fill="#056372"></path><path d="M0 -307.8C35.3 -293.5 70.7 -279.2 110.7 -267.2C150.7 -255.2 195.4 -245.6 217.6 -217.6C239.9 -189.7 239.8 -143.3 251.1 -104C262.4 -64.7 285.1 -32.3 307.8 0L0 0Z" fill="#33a19b"></path><path d="M0 -205.2C23.6 -195.7 47.1 -186.1 73.8 -178.1C100.5 -170.1 130.2 -163.7 145.1 -145.1C160 -126.5 159.9 -95.6 167.4 -69.3C174.9 -43.1 190.1 -21.6 205.2 0L0 0Z" fill="#7fe0b4"></path><path d="M0 -102.6C11.8 -97.8 23.6 -93.1 36.9 -89.1C50.2 -85.1 65.1 -81.9 72.5 -72.5C80 -63.2 79.9 -47.8 83.7 -34.7C87.5 -21.6 95 -10.8 102.6 0L0 0Z" fill="#aeffbd"></path></g></svg>